<svg width="134" height="32" viewBox="0 0 134 32" fill="none" xmlns="http://www.w3.org/2000/svg">
<path fill-rule="evenodd" clip-rule="evenodd" d="M8.33835 1.33972L0 15.8453L8.33835 30.3952L11.4172 24.7423L6.32354 15.8453L11.4172 6.83642L8.33835 1.33972Z" fill="#C9CBC7"/>
<path fill-rule="evenodd" clip-rule="evenodd" d="M10.0425 0H28.0314L37.2108 15.8129L28.0314 32H10.0425L19.1342 15.8666L10.0425 0ZM19.3888 5.4886L25.1293 16.0075L19.3888 26.5265H24.9878L30.8699 16.0568L24.9878 5.4886H19.3888Z" fill="#D62639"/>
<path d="M46.7309 23V9.28H57.6909V11.72H49.7309V14.78H56.7709V17.2H49.7309V20.54H57.8109V23H46.7309ZM64.3633 23.24C63.2433 23.24 62.3033 23.0467 61.5433 22.66C60.7833 22.26 60.2033 21.6533 59.8033 20.84C59.4166 20.0133 59.2233 18.98 59.2233 17.74C59.2233 16.4733 59.4166 15.44 59.8033 14.64C60.2033 13.8267 60.7833 13.22 61.5433 12.82C62.3166 12.42 63.2566 12.22 64.3633 12.22C65.0833 12.22 65.7299 12.3067 66.3033 12.48C66.8899 12.6533 67.3966 12.92 67.8233 13.28C68.2499 13.64 68.5699 14.0867 68.7833 14.62C69.0099 15.14 69.1233 15.76 69.1233 16.48H66.3433C66.3433 16 66.2699 15.6067 66.1233 15.3C65.9766 14.9933 65.7499 14.76 65.4433 14.6C65.1499 14.44 64.7766 14.36 64.3233 14.36C63.7899 14.36 63.3566 14.48 63.0233 14.72C62.6899 14.96 62.4433 15.3133 62.2833 15.78C62.1233 16.2467 62.0433 16.8267 62.0433 17.52V17.98C62.0433 18.66 62.1233 19.2333 62.2833 19.7C62.4566 20.1667 62.7166 20.52 63.0633 20.76C63.4099 20.9867 63.8633 21.1 64.4233 21.1C64.8766 21.1 65.2499 21.02 65.5433 20.86C65.8499 20.7 66.0833 20.46 66.2433 20.14C66.4033 19.82 66.4833 19.4333 66.4833 18.98H69.1233C69.1233 19.66 69.0099 20.2667 68.7833 20.8C68.5699 21.3333 68.2499 21.78 67.8233 22.14C67.4099 22.5 66.9099 22.7733 66.3233 22.96C65.7366 23.1467 65.0833 23.24 64.3633 23.24ZM70.8081 23V8.54H73.5881V13.64H73.7281C73.9548 13.36 74.2215 13.12 74.5281 12.92C74.8481 12.7067 75.2015 12.54 75.5881 12.42C75.9881 12.3 76.4215 12.24 76.8881 12.24C77.5815 12.24 78.1881 12.3667 78.7081 12.62C79.2281 12.8733 79.6281 13.2733 79.9081 13.82C80.2015 14.3667 80.3481 15.08 80.3481 15.96V23H77.5681V16.4C77.5681 16.0667 77.5281 15.7867 77.4481 15.56C77.3681 15.32 77.2481 15.1267 77.0881 14.98C76.9415 14.82 76.7548 14.7067 76.5281 14.64C76.3015 14.5733 76.0481 14.54 75.7681 14.54C75.3548 14.54 74.9815 14.64 74.6481 14.84C74.3148 15.04 74.0548 15.3133 73.8681 15.66C73.6815 16.0067 73.5881 16.4067 73.5881 16.86V23H70.8081ZM87.2794 23.24C86.1327 23.24 85.1594 23.0467 84.3594 22.66C83.5594 22.26 82.9527 21.6533 82.5394 20.84C82.126 20.0133 81.9194 18.98 81.9194 17.74C81.9194 16.4733 82.126 15.44 82.5394 14.64C82.9527 13.8267 83.5594 13.2267 84.3594 12.84C85.1594 12.44 86.1327 12.24 87.2794 12.24C88.4527 12.24 89.4327 12.44 90.2194 12.84C91.0194 13.2267 91.626 13.8267 92.0394 14.64C92.4527 15.44 92.6594 16.4733 92.6594 17.74C92.6594 18.98 92.4527 20.0133 92.0394 20.84C91.626 21.6533 91.0194 22.26 90.2194 22.66C89.4327 23.0467 88.4527 23.24 87.2794 23.24ZM87.2794 21.08C87.8927 21.08 88.3794 20.9667 88.7394 20.74C89.1127 20.5133 89.386 20.1667 89.5594 19.7C89.7327 19.2333 89.8194 18.66 89.8194 17.98V17.5C89.8194 16.82 89.7327 16.2467 89.5594 15.78C89.386 15.3133 89.1127 14.9667 88.7394 14.74C88.3794 14.5 87.8927 14.38 87.2794 14.38C86.6794 14.38 86.1927 14.5 85.8194 14.74C85.4594 14.9667 85.1927 15.3133 85.0194 15.78C84.846 16.2467 84.7594 16.82 84.7594 17.5V17.98C84.7594 18.66 84.846 19.2333 85.0194 19.7C85.1927 20.1667 85.4594 20.5133 85.8194 20.74C86.1927 20.9667 86.6794 21.08 87.2794 21.08ZM94.545 23V9.28H97.525V20.46H104.445V23H94.545ZM105.721 10.94V8.54H108.501V10.94H105.721ZM105.721 23V12.48H108.501V23H105.721ZM110.653 23V12.48H112.953L113.173 13.92H113.313C113.553 13.5733 113.84 13.2733 114.173 13.02C114.52 12.7667 114.907 12.5733 115.333 12.44C115.76 12.3067 116.227 12.24 116.733 12.24C117.427 12.24 118.033 12.3667 118.553 12.62C119.073 12.8733 119.473 13.2733 119.753 13.82C120.047 14.3667 120.193 15.08 120.193 15.96V23H117.413V16.4C117.413 16.0667 117.373 15.7867 117.293 15.56C117.213 15.32 117.093 15.1267 116.933 14.98C116.787 14.82 116.6 14.7067 116.373 14.64C116.147 14.5733 115.893 14.54 115.613 14.54C115.2 14.54 114.827 14.64 114.493 14.84C114.16 15.04 113.9 15.3133 113.713 15.66C113.527 16.0067 113.433 16.4067 113.433 16.86V23H110.653ZM122.285 23V8.52H125.065V16.86L128.745 12.48H132.005L128.405 16.6L132.185 23H129.005L126.585 18.56L125.065 20.04V23H122.285Z" fill="white"/>
</svg>
